<?xml version="1.0" encoding="UTF-8" standalone="no"?>
<svg
   width="512"
   height="512"
   version="1.1"
   id="svg28"
   sodipodi:docname="logo.svg"
   inkscape:version="1.4 (e7c3feb100, 2024-10-09)"
   xmlns:inkscape="http://www.inkscape.org/namespaces/inkscape"
   xmlns:sodipodi="http://sodipodi.sourceforge.net/DTD/sodipodi-0.dtd"
   xmlns="http://www.w3.org/2000/svg"
   xmlns:svg="http://www.w3.org/2000/svg">
  <defs
     id="defs28" />
  <sodipodi:namedview
     id="namedview28"
     pagecolor="#ffffff"
     bordercolor="#000000"
     borderopacity="0.25"
     inkscape:showpageshadow="2"
     inkscape:pageopacity="0.0"
     inkscape:pagecheckerboard="0"
     inkscape:deskcolor="#d1d1d1"
     inkscape:zoom="0.26953125"
     inkscape:cx="547.24638"
     inkscape:cy="552.81159"
     inkscape:window-width="1189"
     inkscape:window-height="755"
     inkscape:window-x="56"
     inkscape:window-y="93"
     inkscape:window-maximized="1"
     inkscape:current-layer="svg28" />
  <g
     id="g28"
     transform="matrix(0.91895976,0,0,0.91895976,-214.554,-214.87127)">
    <path
       fill="#faf0ca"
       d="m 490.693,259.571 42.785,-0.03 c 2.924,8.255 3.856,17.134 7.492,25.136 2.856,0.882 29.262,6.01 31.909,5.758 6.493,-0.616 8.505,-7.203 11.219,-12.121 1.675,-3.035 3.54,-5.853 5.712,-8.551 13.798,4.357 27.905,10.008 40.917,16.31 -0.775,6.56 -5.268,19.139 -3.167,24.939 0.727,2.008 2.165,3.571 3.804,4.892 3.278,2.642 7.248,4.403 10.794,6.66 4.719,3.005 9.334,7.012 14.465,9.216 7.709,-3.056 14.009,-9.715 21.186,-13.936 7.741,4.934 27.485,24.301 32.644,31.863 -2.529,4.38 -12.83,16.421 -13.055,20.341 -0.226,3.936 16.961,27.989 20.446,31.042 3.373,1.19 18.846,-3.204 23.474,-4.029 6.779,10.982 13.499,28.206 17.591,40.634 -6.571,5.779 -14.471,10.022 -20.536,16.384 1.394,5.517 2.816,11.092 3.865,16.686 0.883,4.704 1.189,10.544 2.986,14.96 2.05,5.036 19.251,5.838 24.738,8.45 0.162,0.077 0.321,0.16 0.482,0.24 0.412,9.787 2.262,30.867 0.846,39.269 -1.33,7.893 -17.748,6.821 -23.224,11.094 -3.638,2.839 -5.072,24.753 -5.683,30.272 3.986,4.211 16.451,12.486 17.705,17.587 1.262,5.139 -11.336,33.776 -14.624,39.858 -1.249,2.311 -2.85,4.352 -4.477,6.405 L 741,660.377 c 12.759,1.502 23.935,5.668 33.31,14.713 9.838,9.493 16.192,23.039 16.315,36.789 q 0.01,1.315 -0.044,2.629 -0.054,1.314 -0.172,2.624 -0.119,1.31 -0.301,2.612 -0.182,1.303 -0.428,2.595 -0.246,1.291 -0.554,2.57 -0.308,1.278 -0.679,2.54 -0.371,1.262 -0.803,2.504 -0.432,1.242 -0.924,2.462 -0.492,1.219 -1.043,2.413 -0.551,1.194 -1.16,2.36 -0.609,1.166 -1.274,2.3 -0.665,1.135 -1.384,2.236 -0.72,1.1 -1.493,2.164 -0.773,1.065 -1.596,2.09 -0.824,1.025 -1.697,2.009 -0.873,0.983 -1.793,1.923 c -7.365,7.378 -17.409,12.366 -27.644,14.21 -9.274,1.67 -18.993,0.959 -28.384,0.934 l -38.56,-0.008 -146.442,0.049 -175.36,-0.004 -51.355,0.017 c -10.009,-0.009 -20.725,0.66 -30.631,-0.822 q -1.732,-0.267 -3.441,-0.652 -1.71,-0.385 -3.389,-0.885 -1.679,-0.5 -3.32,-1.114 -1.642,-0.613 -3.237,-1.337 -1.596,-0.724 -3.139,-1.554 -1.543,-0.831 -3.025,-1.765 -1.483,-0.934 -2.898,-1.967 -1.416,-1.032 -2.758,-2.159 c -10.538,-8.722 -16.748,-21.525 -17.983,-35.074 q -0.123,-1.278 -0.182,-2.56 -0.06,-1.282 -0.057,-2.566 0.003,-1.284 0.068,-2.566 0.066,-1.281 0.195,-2.559 0.128,-1.277 0.319,-2.546 0.191,-1.27 0.444,-2.528 0.253,-1.259 0.567,-2.503 0.314,-1.245 0.689,-2.473 0.374,-1.227 0.809,-2.435 0.434,-1.208 0.927,-2.393 0.493,-1.186 1.044,-2.345 0.55,-1.16 1.157,-2.291 0.606,-1.131 1.268,-2.232 0.661,-1.1 1.375,-2.166 0.714,-1.067 1.48,-2.097 0.766,-1.03 1.581,-2.022 c 10.016,-11.951 21.748,-16.592 36.91,-17.977 q -0.157,-11.782 0.052,-23.563 c -7.865,-6.578 -17.199,-35.292 -20.64,-45.786 5.784,-5.866 13.099,-9.703 18.347,-16.158 -0.033,-4.165 -1.399,-26.725 -2.817,-29.681 -3.17,-6.607 -19.441,-7.661 -26.171,-10.351 -0.193,-0.077 -0.384,-0.16 -0.576,-0.239 q -0.226,-20.705 0.025,-41.41 c 5.729,-1.732 21.662,-3.47 24.941,-6.882 1.11,-1.154 1.842,-2.667 2.337,-4.175 0.947,-2.883 6.311,-26.128 6.159,-28.124 -0.375,-4.892 -16.557,-14.435 -20.865,-18.123 2.514,-8.377 13.379,-34.126 17.805,-41.282 7.64,1.539 16.609,5.404 24.37,4.857 2.291,-1.923 20.037,-27.311 20.53,-29.372 0.734,-3.067 -9.361,-18.192 -11.531,-21.77 q 15.619,-15.849 31.76,-31.166 c 7.351,3.742 13.524,9.463 21.428,12.055 4.735,-1.715 25.616,-15.199 29.066,-18.798 0.237,-8.162 -2,-16.838 -3.261,-24.914 12.824,-6.152 26.96,-11.91 40.529,-16.121 4.535,5.667 8.957,16.301 14.755,19.988 4.666,0.481 28.596,-4.381 33.089,-6.347 0.853,-0.372 1.693,-0.647 2.255,-1.406 2.797,-3.773 4.312,-17.093 6.556,-22.602 0.079,-0.193 0.162,-0.386 0.242,-0.579 z"
       id="path2" />
    <path
       fill="#0d3b66"
       d="m 506.429,298.238 q 3.808,-0.086 7.617,-0.094 2.657,0.016 5.314,0.096 2.656,0.08 5.309,0.224 2.654,0.145 5.303,0.353 2.649,0.208 5.293,0.48 2.643,0.272 5.279,0.608 2.636,0.335 5.263,0.734 2.628,0.4 5.245,0.862 2.616,0.462 5.221,0.988 2.605,0.525 5.197,1.113 2.591,0.588 5.168,1.239 2.576,0.65 5.136,1.363 2.561,0.712 5.103,1.486 2.542,0.774 5.065,1.609 2.523,0.835 5.024,1.731 2.502,0.895 4.982,1.851 2.48,0.956 4.935,1.971 2.456,1.015 4.887,2.09 2.43,1.074 4.834,2.206 2.404,1.133 4.78,2.323 2.376,1.19 4.723,2.437 2.346,1.248 4.662,2.551 2.316,1.303 4.6,2.662 2.283,1.359 4.533,2.773 2.251,1.413 4.466,2.881 2.216,1.467 4.395,2.988 2.18,1.52 4.322,3.093 2.142,1.572 4.245,3.196 2.104,1.624 4.168,3.298 2.064,1.674 4.086,3.397 2.023,1.724 4.004,3.495 1.98,1.772 3.918,3.591 1.937,1.819 3.83,3.684 1.7,1.67 3.363,3.377 1.663,1.707 3.289,3.449 1.626,1.742 3.214,3.519 1.588,1.777 3.137,3.588 1.55,1.811 3.059,3.655 1.51,1.844 2.979,3.72 1.47,1.877 2.898,3.784 1.429,1.908 2.816,3.846 1.387,1.938 2.731,3.905 1.345,1.968 2.647,3.964 1.302,1.996 2.56,4.02 1.258,2.024 2.473,4.075 1.214,2.05 2.384,4.127 1.169,2.076 2.294,4.177 1.124,2.101 2.203,4.226 1.079,2.125 2.111,4.273 1.033,2.148 2.019,4.318 0.986,2.17 1.924,4.36 0.939,2.19 1.83,4.401 0.891,2.21 1.734,4.439 0.844,2.229 1.638,4.476 0.795,2.247 1.541,4.51 0.746,2.263 1.443,4.542 0.697,2.279 1.344,4.573 0.648,2.293 1.245,4.6 0.598,2.307 1.145,4.627 0.548,2.319 1.045,4.65 0.498,2.33 0.944,4.671 0.447,2.341 0.843,4.691 0.397,2.35 0.742,4.708 0.345,2.358 0.639,4.723 0.294,2.365 0.537,4.736 c 2.162,21.545 1.376,43.677 1.4,65.325 v 98.856 l -13.249,0.024 -0.603,-98.499 c -0.148,-19.926 0.606,-40.197 -0.967,-60.062 q -0.151,-2.032 -0.342,-4.061 -0.191,-2.028 -0.422,-4.053 -0.232,-2.024 -0.503,-4.044 -0.272,-2.019 -0.584,-4.033 -0.312,-2.013 -0.664,-4.02 -0.352,-2.008 -0.744,-4.007 -0.392,-2 -0.823,-3.991 -0.432,-1.992 -0.903,-3.974 -0.472,-1.982 -0.982,-3.955 -0.511,-1.973 -1.061,-3.935 -0.55,-1.962 -1.139,-3.912 -0.588,-1.951 -1.216,-3.89 -0.628,-1.938 -1.294,-3.864 -0.666,-1.925 -1.37,-3.838 -0.705,-1.912 -1.447,-3.809 -0.742,-1.898 -1.522,-3.78 -0.78,-1.883 -1.598,-3.749 -0.817,-1.867 -1.671,-3.717 -0.855,-1.85 -1.746,-3.682 -0.891,-1.833 -1.818,-3.647 -0.928,-1.814 -1.891,-3.61 -0.963,-1.795 -1.962,-3.571 -0.999,-1.776 -2.033,-3.532 -1.035,-1.756 -2.104,-3.49 -1.068,-1.735 -2.172,-3.448 -1.103,-1.713 -2.24,-3.404 -1.137,-1.691 -2.308,-3.359 -1.171,-1.668 -2.374,-3.312 -1.204,-1.644 -2.44,-3.264 -1.236,-1.62 -2.505,-3.214 -1.268,-1.595 -2.567,-3.165 -1.3,-1.569 -2.631,-3.112 c -40.255,-46.21 -91.577,-67.642 -151.996,-71.841 q -2.672,-0.054 -5.345,-0.068 c -53.24,-0.242 -107.718,21.352 -145.508,58.866 -35.563,35.302 -57.616,79.072 -61.919,129.342 -1.606,18.766 -0.807,38.119 -0.84,56.953 l 0.02,104.732 -13.702,-0.02 0.111,-95.698 c -0.054,-21.441 -1.168,-44.005 0.541,-65.318 3.769,-47.001 23.414,-94.48 55.443,-129.302 41.965,-45.624 98.385,-70.321 160.012,-72.857 z"
       id="path3" />
    <path
       fill="#0d3b66"
       d="m 505.881,329.615 c 4.121,0.007 7.763,0.915 11.092,3.441 q 0.638,0.484 1.223,1.03 0.586,0.546 1.112,1.15 0.526,0.603 0.988,1.257 0.462,0.654 0.854,1.352 0.392,0.698 0.711,1.432 0.319,0.734 0.561,1.498 0.242,0.763 0.405,1.547 0.162,0.784 0.244,1.58 c 0.465,4.215 -0.649,8.535 -3.325,11.852 -3.943,4.887 -9.185,5.773 -15.054,6.361 -9.216,15.866 -23.405,34.343 -34.558,49.183 2.793,6.671 4.671,13.986 6.902,20.893 q 5.848,18.157 12.022,36.205 c 4.25,-1.633 8.597,-2.982 12.931,-4.37 -2.621,-5.639 -18.912,-50.16 -18.698,-53.521 0.083,-1.314 0.467,-1.725 1.42,-2.558 0.934,-0.147 1.569,-0.306 2.489,0.026 0.973,0.349 1.36,1.5 1.75,2.38 2.974,6.709 4.999,14.076 7.336,21.034 q 5.165,15.684 11.109,31.09 l 17.996,-5.921 c -1.744,-5.585 -6.347,-22.768 -8.638,-26.743 -0.152,-0.265 -0.385,-0.474 -0.578,-0.711 l 0.106,-0.708 c -5.11,-0.951 -10.009,-2.237 -13.289,-6.632 -2.463,-3.301 -3.926,-8.211 -3.059,-12.304 0.92,-4.344 3.494,-8.69 7.228,-11.166 3.316,-2.199 7.479,-2.847 11.35,-2.046 q 0.801,0.172 1.582,0.422 0.78,0.251 1.532,0.577 0.751,0.326 1.467,0.725 0.716,0.399 1.389,0.867 0.673,0.468 1.296,1 0.624,0.532 1.191,1.123 0.568,0.591 1.074,1.235 0.507,0.645 0.947,1.336 c 2.26,3.494 3.197,7.888 2.247,11.967 -1.191,5.119 -4.876,8.188 -9.094,10.856 2.823,9.42 5.494,18.921 8.628,28.241 12.732,-3.773 25.205,-8.406 37.855,-12.427 4.159,-1.322 8.706,-2.462 12.76,-0.185 2.735,1.536 4.599,4.244 5.923,7.018 1.819,3.815 2.755,8.275 3.999,12.319 l 7.204,23.204 c 10.717,-4.087 22.887,-7.397 34.092,-9.899 5.037,-7.859 10.707,-15.342 16.236,-22.856 -0.488,-0.743 -0.978,-1.494 -1.386,-2.284 -1.026,-1.984 -1.509,-4.344 -0.678,-6.487 0.991,-2.555 3.299,-4.808 5.837,-5.805 2.432,-0.955 5.189,-0.765 7.53,0.36 q 0.436,0.21 0.848,0.463 0.412,0.253 0.796,0.547 0.385,0.293 0.738,0.624 0.352,0.331 0.67,0.696 0.317,0.365 0.596,0.761 0.279,0.395 0.516,0.816 0.237,0.422 0.431,0.865 0.193,0.443 0.341,0.904 c 0.753,2.42 0.721,5.626 -0.574,7.868 -1.807,3.127 -5.913,2.72 -8.954,3.544 -3.642,0.987 -15.666,19.501 -18.076,23.648 l -0.366,0.637 c -10.128,4.494 -26.291,7.7 -37.502,10.587 l 4.931,15.429 c 15.54,-4.405 30.925,-9.341 46.432,-13.862 0.962,-4.767 1.997,-8.857 5.836,-12.205 q 0.561,-0.487 1.167,-0.916 0.606,-0.429 1.252,-0.796 0.645,-0.367 1.324,-0.668 0.678,-0.302 1.383,-0.534 0.705,-0.233 1.43,-0.395 0.725,-0.163 1.462,-0.252 0.737,-0.09 1.479,-0.106 0.743,-0.017 1.483,0.04 0.793,0.064 1.576,0.207 0.783,0.143 1.547,0.364 0.764,0.221 1.503,0.517 0.738,0.297 1.443,0.666 0.705,0.369 1.369,0.807 0.664,0.438 1.281,0.941 0.617,0.503 1.181,1.064 0.563,0.562 1.067,1.178 0.461,0.563 0.864,1.169 0.403,0.606 0.744,1.25 0.34,0.643 0.615,1.317 0.275,0.674 0.481,1.372 0.207,0.698 0.343,1.413 0.136,0.715 0.2,1.44 0.064,0.725 0.055,1.453 -0.008,0.728 -0.089,1.451 c -0.49,4.474 -2.597,8.14 -6.117,10.924 -2.957,2.339 -7.702,3.218 -11.386,2.635 -5.294,-0.838 -8.451,-4.4 -11.488,-8.448 q -23.295,6.604 -46.467,13.631 c 1.437,3.732 2.383,7.737 3.445,11.587 7.274,-2.555 14.913,-4.39 22.308,-6.599 6.179,-1.846 12.761,-4.564 19.103,-5.492 0.807,0.526 0.815,0.352 1.149,1.369 0.402,1.224 0.469,2.72 -0.226,3.851 -0.463,0.753 -1.93,1.181 -2.75,1.46 -3.605,1.225 -7.509,2.003 -11.186,3.068 q -13.469,3.863 -26.821,8.11 c 1.735,5.502 3.488,10.977 5.458,16.401 7.649,-1.855 15.25,-4.24 22.832,-6.37 6.316,-1.774 13.026,-3.253 19.11,-5.688 6.175,3.307 28.619,18.473 32.744,18.993 1.847,-0.913 2.112,-3.557 3.39,-5.092 1.147,-1.378 3.539,-2.12 5.264,-2.229 2.307,-0.147 4.744,0.554 6.476,2.12 1.681,1.522 2.508,3.856 2.567,6.093 q 0.01,0.468 -0.03,0.934 -0.04,0.467 -0.129,0.926 -0.089,0.46 -0.226,0.907 -0.137,0.448 -0.321,0.878 -0.183,0.431 -0.411,0.84 -0.228,0.408 -0.498,0.791 -0.271,0.382 -0.579,0.734 -0.31,0.351 -0.654,0.668 c -1.894,1.732 -4.409,2.534 -6.958,2.336 -3.644,-0.283 -4.004,-2.129 -6.339,-4.283 -1.089,-1.005 -4.899,-0.367 -6.375,-0.276 -9.405,-6.359 -19.291,-12.11 -28.96,-18.062 -12.715,4.918 -26.714,7.166 -39.637,11.702 q 3.067,9.576 6.243,19.116 c 10.401,-2.641 20.656,-5.971 31.123,-8.321 7.453,4.794 13.934,10.728 21.923,14.72 4.148,-1.111 7.704,-1.657 11.935,-0.445 3.06,0.877 5.492,2.814 6.996,5.619 1.969,3.675 2.588,8.277 1.179,12.247 q -0.262,0.73 -0.596,1.43 -0.334,0.701 -0.738,1.363 -0.404,0.663 -0.872,1.281 -0.469,0.618 -0.998,1.186 -0.529,0.567 -1.113,1.078 -0.583,0.511 -1.216,0.961 -0.632,0.449 -1.307,0.832 -0.675,0.383 -1.385,0.695 c -3.508,1.53 -7.293,1.559 -10.8,0.011 -3.544,-1.565 -6.66,-4.397 -7.955,-8.106 -1.667,-4.778 -0.394,-9.337 1.679,-13.712 -6.222,-4.044 -12.15,-8.733 -18.157,-13.104 -9.093,2.726 -18.382,4.787 -27.483,7.514 2.422,8.262 11.638,32.239 8.809,39.673 -1.088,2.859 -3.862,6.045 -6.597,7.428 -7.416,3.749 -17.871,5.946 -25.926,8.715 -23.336,8.025 -47.047,15.489 -70.581,22.945 -13.929,4.413 -28.262,8.373 -41.781,13.917 55.156,-1.572 111.705,-0.414 167.014,-0.449 l 54.986,0.007 c 9.991,0.009 20.754,-0.762 30.63,0.788 9.014,1.414 18.185,5.573 24.985,11.695 8.806,7.929 14.287,19.842 14.789,31.657 q 0.054,1.097 0.052,2.194 -10e-4,1.098 -0.057,2.195 -0.057,1.096 -0.168,2.188 -0.111,1.092 -0.276,2.178 -0.166,1.085 -0.385,2.161 -0.22,1.075 -0.493,2.139 -0.273,1.063 -0.599,2.111 -0.326,1.049 -0.704,2.079 -0.378,1.031 -0.807,2.042 -0.429,1.01 -0.908,1.998 -0.479,0.988 -1.007,1.95 -0.528,0.963 -1.103,1.898 -0.576,0.935 -1.197,1.84 -0.622,0.905 -1.288,1.778 -0.666,0.872 -1.375,1.711 -0.708,0.838 -1.458,1.64 c -9.437,9.584 -22.62,14.549 -35.901,14.923 -29.954,0.841 -60.155,0.106 -90.129,0.089 L 442.812,757.616 331.563,757.614 299.291,757.6 c -6.456,-0.005 -13.169,0.361 -19.578,-0.439 -9.429,-1.176 -17.739,-5.075 -24.601,-11.67 q -0.8,-0.773 -1.561,-1.584 -0.761,-0.812 -1.481,-1.66 -0.721,-0.848 -1.398,-1.73 -0.677,-0.883 -1.311,-1.798 -0.633,-0.914 -1.22,-1.859 -0.587,-0.945 -1.127,-1.918 -0.54,-0.973 -1.031,-1.971 -0.491,-0.998 -0.933,-2.019 -0.441,-1.022 -0.832,-2.063 -0.39,-1.042 -0.729,-2.102 -0.339,-1.059 -0.625,-2.135 -0.286,-1.075 -0.519,-2.163 -0.232,-1.088 -0.411,-2.186 -0.179,-1.098 -0.303,-2.203 -0.125,-1.106 -0.194,-2.216 -0.07,-1.111 -0.085,-2.223 -0.027,-1.122 0.003,-2.243 0.029,-1.122 0.115,-2.241 0.085,-1.119 0.227,-2.232 0.141,-1.113 0.338,-2.217 0.197,-1.105 0.45,-2.198 0.252,-1.094 0.559,-2.173 0.306,-1.079 0.667,-2.142 0.36,-1.062 0.773,-2.106 0.413,-1.043 0.878,-2.064 0.465,-1.021 0.981,-2.018 0.515,-0.996 1.08,-1.966 0.565,-0.969 1.177,-1.909 0.613,-0.94 1.272,-1.849 0.659,-0.908 1.363,-1.782 0.703,-0.874 1.45,-1.711 0.746,-0.838 1.534,-1.637 c 5.326,-5.464 11.816,-8.91 19.189,-10.748 11.719,-2.921 24.382,-1.781 36.373,-1.984 l 61.888,-0.99 c -0.959,-0.682 -1.892,-1.406 -2.695,-2.273 -1.749,-1.886 -2.519,-4.604 -2.263,-7.14 q 0.052,-0.489 0.155,-0.969 0.103,-0.481 0.256,-0.948 0.152,-0.467 0.353,-0.915 0.2,-0.449 0.447,-0.874 0.246,-0.426 0.536,-0.823 0.289,-0.397 0.618,-0.762 0.33,-0.364 0.695,-0.692 0.366,-0.329 0.764,-0.617 0.337,-0.248 0.697,-0.459 0.36,-0.212 0.74,-0.385 0.38,-0.174 0.775,-0.308 0.396,-0.134 0.803,-0.226 0.408,-0.093 0.822,-0.143 0.415,-0.05 0.833,-0.058 0.417,-0.007 0.833,0.028 0.417,0.035 0.827,0.113 c 3.802,0.738 5.681,3.461 7.635,6.488 q 4.687,-11.755 9.072,-23.627 c 10.489,-2.852 20.905,-6.658 31.254,-10.021 -1.511,-5.607 -3.447,-11.127 -5.23,-16.653 -15.94,5.606 -32.266,10.06 -48.231,15.586 -3.089,10.533 -6.021,21.411 -9.907,31.667 -0.843,-1.111 -1.761,-2.242 -2.427,-3.47 -2.558,-4.719 5.755,-26.635 7.693,-32.82 16.759,-6.056 34.187,-10.741 51.158,-16.239 -2.092,-6.255 -3.825,-12.678 -5.708,-19.001 -15.602,3.915 -33.485,10.51 -48.991,15.648 -5.716,1.895 -14.499,5.989 -20.415,6.16 -3.504,0.101 -7.376,-2.054 -10.54,-3.385 -1.252,0.911 -2.545,1.924 -3.947,2.59 -2.251,1.069 -5.103,1.414 -7.462,0.5 -2.345,-0.908 -4.049,-3.039 -4.898,-5.353 -1.022,-2.785 -0.962,-5.941 0.347,-8.623 1.02,-2.088 2.749,-3.715 4.961,-4.464 2.331,-0.79 5.164,-0.665 7.311,0.584 2.587,1.505 4.792,4.799 5.516,7.653 0.018,0.071 0.213,0.924 0.264,1.031 0.71,1.49 6.671,3.096 8.388,3.745 22.623,-6.961 45.277,-14.367 67.711,-21.915 -1.547,-5.077 -3.228,-10.122 -4.844,-15.178 -13.458,3.709 -27.535,7.52 -40.497,12.671 -3.729,-2.308 -15.115,-10.563 -18.733,-10.022 -3.138,0.469 -6.194,1.844 -9.427,1.215 q -0.695,-0.137 -1.371,-0.347 -0.677,-0.209 -1.328,-0.488 -0.651,-0.278 -1.27,-0.623 -0.619,-0.345 -1.198,-0.753 -0.579,-0.407 -1.113,-0.873 -0.533,-0.466 -1.016,-0.984 -0.482,-0.519 -0.907,-1.085 -0.426,-0.567 -0.79,-1.174 c -2.097,-3.476 -3.029,-7.876 -1.868,-11.827 1.108,-3.774 3.993,-6.816 7.49,-8.518 q 0.361,-0.178 0.731,-0.336 0.371,-0.158 0.749,-0.297 0.377,-0.139 0.762,-0.258 0.385,-0.118 0.775,-0.217 0.39,-0.098 0.785,-0.176 0.395,-0.078 0.794,-0.135 0.398,-0.058 0.799,-0.094 0.401,-0.036 0.804,-0.051 0.402,-0.016 0.804,-0.01 0.403,0.006 0.805,0.033 0.401,0.027 0.801,0.074 0.4,0.048 0.797,0.117 0.396,0.069 0.789,0.158 0.392,0.089 0.78,0.199 0.387,0.11 0.768,0.239 0.381,0.13 0.755,0.28 c 3.26,1.303 5.977,3.626 7.357,6.895 2.052,4.859 0.595,9.73 -1.194,14.373 4.659,2.68 9.08,5.606 13.517,8.631 12.406,-4.676 25.188,-8.075 37.747,-12.279 -2.909,-10.605 -6.564,-21.078 -10.044,-31.506 -2.12,-6.355 -4.105,-13.396 -0.719,-19.731 1.394,-2.608 3.624,-4.645 6.179,-6.089 5.117,-2.893 11.64,-4.164 17.235,-5.894 7.242,-2.239 14.418,-4.697 21.648,-6.977 -3.671,-10.003 -6.955,-20.327 -9.851,-30.578 -4.92,0.199 -9.936,-0.107 -14.061,-3.124 -3.189,-2.333 -6.193,-7.161 -6.584,-11.114 -0.431,-4.37 1.658,-9.17 4.524,-12.373 2.908,-3.25 6.895,-4.97 11.244,-5.018 q 0.818,-0.015 1.633,0.055 0.815,0.07 1.619,0.224 0.804,0.154 1.587,0.39 0.784,0.236 1.538,0.551 0.755,0.315 1.474,0.707 0.718,0.392 1.392,0.855 0.674,0.464 1.297,0.995 0.622,0.531 1.187,1.123 0.572,0.606 1.081,1.265 0.509,0.66 0.95,1.366 0.442,0.706 0.812,1.453 0.369,0.746 0.664,1.526 0.294,0.779 0.51,1.584 0.216,0.804 0.352,1.626 0.135,0.822 0.189,1.653 0.054,0.831 0.026,1.664 c -0.21,5.024 -2.817,8.909 -6.477,12.145 4.228,10.123 6.519,21.117 10.492,31.422 6.816,-2.261 13.615,-4.572 20.534,-6.5 -2.561,-9.959 -6.239,-19.833 -9.444,-29.604 l -12.794,-39.99 c 0.481,-1.293 1.166,-2.788 1.408,-4.139 0.733,-4.092 -3.132,-8.022 -1.065,-12.287 1.119,-2.309 3.957,-3.83 6.295,-4.596 2.198,-0.72 4.963,-0.618 7.003,0.542 2.153,1.223 3.963,3.617 4.513,6.031 2.791,12.237 -9.454,8.299 -11.676,12.768 -0.611,1.228 -0.213,2.701 0.098,3.953 1.906,7.658 5.035,15.416 7.497,22.944 l 13.658,42.049 q 7.037,-2.13 14.018,-4.435 c -5.647,-20.274 -14.6,-40.578 -19.432,-60.853 12.653,-15.798 23.958,-32.738 35.224,-49.543 -3.825,-3.078 -6.673,-5.926 -7.713,-10.971 -0.877,-4.255 -0.029,-8.848 2.483,-12.413 2.965,-4.208 7.067,-5.821 11.905,-6.782 z"
       id="path4" />
    <path
       fill="#faf0ca"
       d="m 446.359,661.381 c 1.074,0.204 1.953,0.398 2.902,0.962 1.5,0.891 2.601,1.889 2.992,3.58 -1.019,1.045 -1.78,0.828 -3.202,0.953 l -7.6,0.025 c 1.479,-2.142 2.744,-4.01 4.908,-5.52 z"
       id="path5" />
    <path
       fill="#faf0ca"
       d="m 557.079,456.936 c 0.349,0.097 0.697,0.194 1.041,0.306 1.826,0.595 3.38,1.878 4.102,3.713 0.534,1.359 0.412,2.093 -0.046,3.438 -1.042,1.255 -1.863,1.537 -3.351,2.008 -1.805,-0.318 -3.507,-0.771 -4.732,-2.254 -0.768,-0.93 -1.047,-2.051 -0.76,-3.225 0.503,-2.055 2.083,-2.945 3.746,-3.986 z"
       id="path6" />
    <path
       fill="#faf0ca"
       d="m 622.479,601.978 c 0.137,-0.004 0.274,-0.012 0.411,-0.011 2.141,0.013 3.957,0.206 5.384,2.02 0.87,1.107 1.083,2.338 0.915,3.705 -0.266,2.147 -1.832,3.414 -3.482,4.57 -0.158,0.003 -0.315,0.011 -0.473,0.008 -2.105,-0.039 -3.998,-0.281 -5.425,-2.054 -0.894,-1.11 -1.092,-2.256 -0.907,-3.639 0.289,-2.169 1.913,-3.428 3.577,-4.599 z"
       id="path7" />
    <path
       fill="#faf0ca"
       d="m 573.638,447.91 c 1.976,0.229 3.771,0.87 5.001,2.517 0.934,1.252 1.22,2.806 0.868,4.324 -0.54,2.329 -2.006,3.341 -3.951,4.478 -0.263,-0.015 -0.525,-0.024 -0.787,-0.044 -1.676,-0.126 -3.509,-0.849 -4.52,-2.265 -0.926,-1.297 -1.214,-2.659 -0.847,-4.22 0.605,-2.578 2.089,-3.515 4.236,-4.79 z"
       id="path8" />
    <path
       fill="#faf0ca"
       d="m 523.568,636.865 c 0.599,-0.05 1.073,-0.109 1.688,-0.064 q 0.324,0.022 0.644,0.082 0.32,0.06 0.63,0.157 0.31,0.098 0.607,0.23 0.297,0.133 0.576,0.3 0.28,0.166 0.538,0.364 0.257,0.198 0.49,0.425 0.233,0.227 0.438,0.48 0.205,0.252 0.379,0.527 c 0.884,1.384 1.001,3.011 0.566,4.559 -0.538,1.913 -1.766,2.78 -3.389,3.774 -0.561,0.064 -0.925,0.122 -1.514,0.106 -1.578,-0.045 -2.971,-0.523 -4.016,-1.755 -1.073,-1.267 -1.314,-2.639 -1.095,-4.237 0.338,-2.457 1.571,-3.485 3.458,-4.948 z"
       id="path9" />
    <path
       fill="#faf0ca"
       d="m 604.025,610.489 c 0.169,0.042 0.34,0.078 0.508,0.126 2.023,0.583 3.739,1.458 4.63,3.476 0.551,1.248 0.556,2.618 0.074,3.882 -0.827,2.167 -2.343,3.104 -4.346,4.075 -0.615,-0.13 -1.312,-0.244 -1.907,-0.467 -1.498,-0.561 -3.099,-1.849 -3.67,-3.407 -0.486,-1.326 -0.515,-2.567 0.033,-3.874 0.907,-2.162 2.674,-2.906 4.678,-3.811 z"
       id="path10" />
    <path
       fill="#faf0ca"
       d="m 464.638,654.43 c 0.27,0.005 0.541,0.004 0.811,0.014 1.726,0.067 3.576,0.86 4.604,2.303 1.04,1.462 1.338,3.052 0.915,4.792 -0.53,2.18 -1.908,3.23 -3.699,4.417 -0.169,-0.021 -0.339,-0.036 -0.508,-0.062 -2.267,-0.348 -3.953,-0.953 -5.251,-2.95 -0.805,-1.239 -1.016,-2.618 -0.707,-4.046 0.513,-2.369 1.904,-3.261 3.835,-4.468 z"
       id="path11" />
    <path
       fill="#faf0ca"
       d="m 397.91,506.52 c 0.262,-0.016 0.524,-0.035 0.785,-0.048 2.428,-0.123 4.314,0.131 6.14,1.876 0.973,0.929 1.566,2.061 1.477,3.444 -0.139,2.157 -1.484,3.347 -3.001,4.657 -0.73,0.155 -1.45,0.294 -2.199,0.32 -1.729,0.058 -3.377,-0.409 -4.639,-1.639 -1.031,-1.005 -1.418,-2.14 -1.418,-3.573 0,-2.121 1.398,-3.692 2.855,-5.037 z"
       id="path12" />
    <path
       fill="#faf0ca"
       d="m 542.524,630.47 c 0.474,-0.013 0.948,-0.032 1.422,-0.017 1.807,0.055 3.458,0.632 4.664,2.007 1.082,1.234 1.378,2.623 1.156,4.245 -0.29,2.127 -1.828,3.496 -3.396,4.768 -0.564,0.035 -0.78,0.061 -1.39,0.032 -1.736,-0.084 -3.704,-0.774 -4.785,-2.229 -0.868,-1.169 -1.23,-2.412 -1.084,-3.85 0.243,-2.386 1.692,-3.509 3.413,-4.956 z"
       id="path13" />
    <path
       fill="#faf0ca"
       d="m 419.453,497.925 c 2.349,0.313 4.429,1.006 5.882,3 0.9,1.237 1.228,2.775 0.803,4.259 -0.607,2.123 -2.24,3.101 -4.052,4.113 -0.507,0.006 -1.017,0.024 -1.523,-0.01 -1.567,-0.106 -3.266,-0.908 -4.178,-2.231 -1.05,-1.525 -1.315,-3.147 -0.822,-4.924 0.62,-2.233 1.961,-3.105 3.89,-4.207 z"
       id="path14" />
    <path
       fill="#faf0ca"
       d="m 681.935,582.469 c 1.135,-0.036 2.455,-0.078 3.564,0.182 1.623,0.38 3.216,1.586 4.11,2.979 0.906,1.413 1.039,2.949 0.669,4.562 -0.493,2.146 -2.227,3.533 -3.945,4.702 -0.969,0.114 -1.984,0.139 -2.957,0.044 -1.689,-0.166 -3.243,-1.164 -4.256,-2.51 -1.029,-1.366 -1.38,-3.056 -1.105,-4.733 0.427,-2.609 1.834,-3.789 3.92,-5.226 z"
       id="path15" />
    <path
       fill="#faf0ca"
       d="m 337.555,543.036 q 1.507,-0.091 3.005,0.102 c 2.228,0.306 4.362,1.55 5.634,3.418 1.09,1.602 1.453,3.506 0.983,5.392 -0.672,2.701 -2.574,4.419 -4.861,5.809 -1.21,0.179 -2.344,0.277 -3.564,0.103 q -0.369,-0.055 -0.731,-0.148 -0.362,-0.092 -0.713,-0.22 -0.351,-0.128 -0.687,-0.291 -0.336,-0.163 -0.654,-0.359 -0.318,-0.196 -0.614,-0.423 -0.297,-0.227 -0.569,-0.483 -0.272,-0.255 -0.517,-0.537 -0.246,-0.282 -0.461,-0.587 c -1.294,-1.85 -1.596,-4.106 -1.076,-6.282 0.678,-2.836 2.424,-4.09 4.825,-5.494 z"
       id="path16" />
    <path
       fill="#faf0ca"
       d="m 327.572,687.553 40.938,-0.011 -0.094,8.525 -15.399,-0.013 -0.015,24.983 -0.024,15.269 -9.461,-0.02 -0.044,-40.263 -15.825,-0.024 z"
       id="path17" />
    <path
       fill="#faf0ca"
       d="m 442.81,687.133 c 0.032,-0.005 0.065,-0.012 0.098,-0.014 10.118,-0.705 16.517,1.828 24.216,8.121 -2.289,1.92 -4.651,3.763 -6.983,5.63 -2.579,-2.125 -5.16,-4.055 -8.42,-4.995 -4.469,-1.29 -9.708,-0.414 -13.672,1.974 -3.53,2.126 -5.798,5.483 -6.734,9.471 -1.161,4.945 -0.368,10.545 2.511,14.778 2.29,3.368 5.708,5.728 9.724,6.49 5.506,1.044 10.322,-0.866 14.841,-3.811 1.04,-0.962 1.167,-1.264 2.548,-1.43 2.619,1.202 4.504,3.682 6.449,5.757 -3.865,3.911 -8.285,6.767 -13.678,8.106 -7.142,1.773 -14.956,0.624 -21.161,-3.389 -5.973,-3.863 -10.003,-9.48 -11.453,-16.467 -1.386,-6.682 -0.186,-14.281 3.729,-19.927 4.293,-6.193 10.772,-9.098 17.985,-10.294 z"
       id="path18" />
    <path
       fill="#faf0ca"
       d="m 601.522,687.624 9.47,0.007 c 0.158,9.013 -2.217,31.356 3.783,37.843 1.838,1.987 4.324,2.913 6.998,2.991 2.663,0.079 5.143,-0.705 7.007,-2.662 5.454,-5.725 3.52,-29.961 3.491,-38.128 3.186,-0.069 6.371,0.067 9.555,0.163 l 0.128,9.047 c 0.077,10.08 2.49,26.808 -5.052,34.492 -3.802,3.874 -9.089,5.661 -14.451,5.686 -5.743,0.026 -11.72,-1.94 -15.808,-6.085 q -0.73,-0.731 -1.362,-1.549 -0.631,-0.818 -1.153,-1.71 -0.522,-0.892 -0.927,-1.843 -0.404,-0.951 -0.684,-1.946 c -2.444,-8.487 -1.061,-26.896 -0.995,-36.306 z"
       id="path19" />
    <path
       fill="#faf0ca"
       d="m 585.43,687.723 6.082,0.157 0.056,48.65 -9.594,-0.011 0.036,-19.949 c -6.845,0.096 -13.7,0.02 -20.546,0.017 0.028,6.331 0.363,12.89 -0.196,19.19 -1.113,0.897 -2.246,0.621 -3.643,0.66 -1.721,0.035 -3.398,-0.037 -5.115,-0.157 -1.424,-1.539 -0.723,-43.293 -0.728,-48.466 l 9.299,0.119 0.135,20.53 20.847,0.004 c -0.013,-6.569 -0.239,-13.244 0.201,-19.796 1.018,-1.044 1.745,-0.826 3.166,-0.948 z"
       id="path20" />
    <path
       fill="#faf0ca"
       d="m 475.988,687.642 c 2.955,-0.134 5.95,-0.049 8.91,-0.05 0.487,6.426 0.309,12.984 0.344,19.431 l 22.21,0.08 0.033,-19.348 c 3.266,-0.186 6.497,-0.103 9.764,-0.009 0.177,5.781 0.7,46.552 -0.375,48.533 l -1.249,0.185 -8.133,-0.024 0.043,-20.738 c -7.467,0.315 -14.972,0.195 -22.446,0.211 l 0.051,20.841 c -3.156,0.023 -6.315,-0.021 -9.472,-0.033 -0.24,-16.272 -0.39,-32.822 0.32,-49.079 z"
       id="path21" />
    <path
       fill="#faf0ca"
       d="m 376.421,687.48 36.019,0.005 -0.011,8.898 q -13.172,-0.079 -26.343,-0.301 l -0.01,10.983 c 7.93,10e-4 15.875,-0.095 23.8,0.21 l 0.122,8.77 -23.018,-0.143 -0.587,0.317 c -0.789,3.714 -0.267,8.215 -0.228,12.028 q 13.836,-0.086 27.671,0.074 l -0.074,8.314 c -12.424,0.205 -24.883,0.006 -37.311,-0.009 z"
       id="path22" />
    <path
       fill="#faf0ca"
       d="m 425.416,628.522 0.898,0.016 c 1.672,2.023 11.449,33.751 12.603,38.37 l -46.542,0.094 q -6.813,0.165 -13.627,0.028 c 1.743,-1.354 3.339,-2.925 4.964,-4.418 1.384,0.003 3.541,0.239 4.779,-0.31 0.698,-0.309 8.456,-22.093 9.597,-24.702 8.935,-3.393 18.32,-5.79 27.328,-9.078 z"
       id="path23" />
    <path
       fill="#faf0ca"
       d="m 650.519,687.766 c 6.484,0.007 13.044,-0.17 19.518,0.182 4.806,0.261 10.374,1.327 13.632,5.201 1.958,2.329 2.904,5.558 2.629,8.582 -0.371,4.093 -2.873,7.151 -5.986,9.579 3.171,1.671 5.745,3.286 7.319,6.646 1.73,3.695 0.977,7.578 -0.275,11.284 -0.678,1.115 -1.528,2.23 -2.485,3.121 -6.597,6.141 -25.659,4.18 -34.399,4.148 z"
       id="path24" />
    <path
       fill="#0d3b66"
       d="m 660.169,696.462 c 4.089,-0.097 13.014,-1 15.867,2.32 0.472,0.55 0.865,1.352 0.843,2.088 -0.064,2.1 -1.392,3.63 -2.774,5.068 -4.588,2.385 -8.993,1.896 -14.002,1.834 z"
       id="path25" />
    <path
       fill="#0d3b66"
       d="m 660.009,715.62 c 5.282,0.091 13.239,-0.734 17.69,2.453 1.027,0.735 1.787,1.787 1.863,3.086 0.118,1.985 -0.905,3.547 -2.079,5.026 -5.2,2.585 -11.907,1.858 -17.579,1.823 z"
       id="path26" />
    <path
       fill="#faf0ca"
       d="m 553.146,490.426 c 0.044,0.356 0.196,0.715 0.133,1.068 -0.378,2.096 -29.959,47.258 -33.422,52.645 9.932,3.231 20.048,5.865 29.975,9.13 -8.719,7.243 -69.51,64.71 -72.942,65.288 3.604,-8.303 8.926,-16.345 13.522,-24.14 6.404,-10.858 12.597,-22.021 19.861,-32.334 -10.193,-3.688 -21.149,-6.246 -31.737,-8.534 18.998,-15.483 37.726,-31.475 56.403,-47.352 6.12,-5.203 11.987,-10.685 18.207,-15.771 z"
       id="path27" />
    <path
       fill="#faf0ca"
       d="m 566.788,465.632 0.552,0.088 c 1.169,1.212 1.488,3.433 1.925,5.05 -4.3,3.071 -8.271,6.716 -12.409,10.012 q -15.886,12.516 -31.305,25.602 l -58.802,49.457 q 17.396,4.354 34.592,9.439 c -5.225,10.77 -12.548,20.992 -18.728,31.262 -8.589,14.274 -15.912,28.708 -22.59,43.946 35.114,-28.48 67.987,-59.5 101.122,-90.223 -10.733,-2.501 -21.305,-6.565 -31.957,-9.518 2.87,-4.815 6.149,-9.436 9.123,-14.199 10.913,-17.476 21.91,-34.98 31.826,-53.041 2.591,6.298 4.497,12.877 6.517,19.374 q 5.17,17.679 10.569,35.29 c 3.417,10.895 21.93,64.244 21.283,72.191 -1.085,1.539 -2.335,2.345 -3.977,3.246 -6.913,3.792 -15.97,5.753 -23.488,8.147 l -39.769,12.863 -48.943,16.231 c -8.714,2.95 -17.508,6.492 -26.376,8.865 -2.58,0.69 -5.517,1.287 -8.126,0.505 -1.338,-1.129 -2.337,-2.16 -2.982,-3.817 -2.185,-5.615 -3.581,-11.946 -5.281,-17.741 l -11.506,-39.173 -13.842,-45.253 c -2.22,-7.235 -5.421,-15.115 -6.666,-22.561 -0.354,-2.122 0.065,-3.481 1.354,-5.214 1.24,-1.666 3.143,-2.66 5.06,-3.339 13.925,-4.929 28.181,-9.12 42.241,-13.658 l 63.053,-20.721 c 9.674,-3.183 28.946,-11.914 37.53,-13.11 z"
       id="path28" />
  </g>
</svg>
